<?xml version="1.0" encoding="UTF-8"?>
<!DOCTYPE svg PUBLIC "-//W3C//DTD SVG 1.1//EN" "http://www.w3.org/Graphics/SVG/1.1/DTD/svg11.dtd">
<svg version="1.1" xmlns="http://www.w3.org/2000/svg" xmlns:xlink="http://www.w3.org/1999/xlink" x="0" y="0" width="320" height="415" viewBox="0, 0, 320, 415">
  <defs>
    <clipPath id="Clip_1">
      <path d="M324,-9.971 L324,412.5 L-4,412.5 L-4,-9.971 L324,-9.971 z"/>
    </clipPath>
  </defs>
  <g id="Layer_1">
    <g clip-path="url(#Clip_1)">
      <path d="M158.531,395.631 L158.531,383.176 C158.532,383.64 158.539,388.769 158.689,395.63 z M283.931,127.593 C264.397,125.585 263.034,144.281 260.07,156.957 C257.943,166.056 267.912,170.675 273.713,172.559 L273.418,180.784 L269.5,180.717 L257.7,243.84 C257.604,243.825 257.51,243.8 257.412,243.787 C247.402,242.547 215.062,240.095 208.473,240.056 C195.541,239.979 188.332,239.028 171.402,239.574 L172.096,240.633 L166.866,237.679 C166.866,237.679 166.727,238.268 166.412,239.222 L165.937,234.138 C206.335,231.202 230.544,204.207 240.075,170.754 C251.962,168.158 257.784,161.376 257.784,149.611 C257.784,137.279 251.356,132.192 244.645,130.235 C244.61,129.421 244.568,128.606 244.519,127.793 C244.519,127.799 244.52,127.805 244.52,127.811 C247.482,129.371 249.142,130.229 249.142,130.229 C249.142,130.229 250.818,72.056 238.257,46.512 C231.834,33.448 215.459,27.378 215.459,27.378 L220.058,19.678 C214.963,20.518 205.498,17.162 198.219,14.647 C190.938,12.131 173.574,13.808 173.574,13.808 L174.195,4.584 C168.371,9.617 126.456,9.982 112.954,16.69 C99.453,23.396 98.726,28.542 98.726,28.542 C93.81,30.868 83.419,36.728 78.608,46.512 C66.047,72.056 67.724,130.229 67.724,130.229 C67.724,130.229 69.45,129.544 72.519,128.292 C72.482,128.939 72.447,129.587 72.419,130.235 C65.708,132.192 59.281,137.279 59.281,149.611 C59.281,161.376 65.104,168.158 76.989,170.753 C86.52,204.207 110.73,231.202 151.127,234.138 L150.709,238.613 C150.532,238.029 150.449,237.679 150.449,237.679 L144.821,240.858 L145.663,239.574 C128.731,239.028 121.523,239.979 108.591,240.056 C102.001,240.095 69.663,242.547 59.653,243.787 C59.555,243.8 59.461,243.825 59.364,243.84 L47.564,180.717 L43.646,180.784 L43.352,172.559 C49.152,170.675 59.121,166.056 56.994,156.957 C54.03,144.281 52.667,125.585 33.134,127.593 C20.853,128.855 6.16,129.654 6.922,149.583 C7.401,162.098 19.874,170.019 24.797,172.667 L25.967,181.083 L21.426,181.16 C21.426,181.16 27.3,238.578 28.858,267.524 C29.479,279.072 53.412,280.867 80.877,282.616 C90.954,283.758 102.434,284.779 114.368,285.457 L106.791,432.78 C106.791,432.78 108.38,433 110.974,433.324 L107.694,670.811 L129.861,671.15 L154.291,463.176 L158.531,461.598 L162.772,463.176 L187.203,671.15 L209.371,670.811 L206.091,433.324 C208.684,433 210.272,432.78 210.272,432.78 L202.695,285.457 C214.63,284.779 226.11,283.758 236.187,282.616 C263.652,280.867 287.585,279.072 288.207,267.524 C289.765,238.578 295.639,181.16 295.639,181.16 L291.098,181.083 L292.268,172.667 C297.191,170.019 309.663,162.098 310.143,149.583 C310.904,129.654 296.212,128.855 283.931,127.593 M100.853,677.981 C94.212,684.308 98.307,686.335 98.307,686.335 L130.153,686.335 L130.153,672.05 C130.153,672.05 109.198,670.032 100.853,677.981 M216.797,677.981 C208.451,670.032 187.496,672.05 187.496,672.05 L187.496,686.335 L219.343,686.335 C219.343,686.335 223.437,684.308 216.797,677.981" fill="#666666"/>
      <path d="M158.531,395.631 L158.531,383.176 C158.532,383.64 158.539,388.769 158.689,395.63 L158.531,395.631 z M283.931,127.593 C264.397,125.585 263.034,144.281 260.07,156.957 C257.943,166.056 267.912,170.675 273.713,172.559 L273.418,180.784 L269.5,180.717 L257.7,243.84 C257.604,243.825 257.51,243.8 257.412,243.787 C247.402,242.547 215.062,240.095 208.473,240.056 C195.541,239.979 188.332,239.028 171.402,239.574 L172.096,240.633 L166.866,237.679 C166.866,237.679 166.727,238.268 166.412,239.222 L165.937,234.138 C206.335,231.202 230.544,204.207 240.075,170.754 C251.962,168.158 257.784,161.376 257.784,149.611 C257.784,137.279 251.356,132.192 244.645,130.235 C244.61,129.421 244.568,128.606 244.519,127.793 C244.519,127.799 244.52,127.805 244.52,127.811 C247.482,129.371 249.142,130.229 249.142,130.229 C249.142,130.229 250.818,72.056 238.257,46.512 C231.834,33.448 215.459,27.378 215.459,27.378 L220.058,19.678 C214.963,20.518 205.498,17.162 198.219,14.647 C190.938,12.131 173.574,13.808 173.574,13.808 L174.195,4.584 C168.371,9.617 126.456,9.982 112.954,16.69 C99.453,23.396 98.726,28.542 98.726,28.542 C93.81,30.868 83.419,36.728 78.608,46.512 C66.047,72.056 67.724,130.229 67.724,130.229 C67.724,130.229 69.45,129.544 72.519,128.292 C72.482,128.939 72.447,129.587 72.419,130.235 C65.708,132.192 59.281,137.279 59.281,149.611 C59.281,161.376 65.104,168.158 76.989,170.753 C86.52,204.207 110.73,231.202 151.127,234.138 L150.709,238.613 C150.532,238.029 150.449,237.679 150.449,237.679 L144.821,240.858 L145.663,239.574 C128.731,239.028 121.523,239.979 108.591,240.056 C102.001,240.095 69.663,242.547 59.653,243.787 C59.555,243.8 59.461,243.825 59.364,243.84 L47.564,180.717 L43.646,180.784 L43.352,172.559 C49.152,170.675 59.121,166.056 56.994,156.957 C54.03,144.281 52.667,125.585 33.134,127.593 C20.853,128.855 6.16,129.654 6.922,149.583 C7.401,162.098 19.874,170.019 24.797,172.667 L25.967,181.083 L21.426,181.16 C21.426,181.16 27.3,238.578 28.858,267.524 C29.479,279.072 53.412,280.867 80.877,282.616 C90.954,283.758 102.434,284.779 114.368,285.457 L106.791,432.78 C106.791,432.78 108.38,433 110.974,433.324 L107.694,670.811 L129.861,671.15 L154.291,463.176 L158.531,461.598 L162.772,463.176 L187.203,671.15 L209.371,670.811 L206.091,433.324 C208.684,433 210.272,432.78 210.272,432.78 L202.695,285.457 C214.63,284.779 226.11,283.758 236.187,282.616 C263.652,280.867 287.585,279.072 288.207,267.524 C289.765,238.578 295.639,181.16 295.639,181.16 L291.098,181.083 L292.268,172.667 C297.191,170.019 309.663,162.098 310.143,149.583 C310.904,129.654 296.212,128.855 283.931,127.593 z M100.853,677.981 C94.212,684.308 98.307,686.335 98.307,686.335 L130.153,686.335 L130.153,672.05 C130.153,672.05 109.198,670.032 100.853,677.981 z M216.797,677.981 C208.451,670.032 187.496,672.05 187.496,672.05 L187.496,686.335 L219.343,686.335 C219.343,686.335 223.437,684.308 216.797,677.981 z" fill-opacity="0" stroke="#666666" stroke-width="8" stroke-linecap="round" stroke-linejoin="round"/>
      <path d="M56.994,156.957 C54.03,144.281 52.667,125.585 33.134,127.593 C20.853,128.855 6.16,129.654 6.922,149.583 C7.401,162.098 19.874,170.019 24.797,172.667 L26.819,187.206 L43.91,188.163 L43.352,172.559 C49.152,170.675 59.121,166.056 56.994,156.957" fill="#FFECD0"/>
      <path d="M56.994,156.957 C54.03,144.281 52.667,125.585 33.134,127.593 C20.853,128.855 6.16,129.654 6.922,149.583 C7.401,162.098 19.874,170.019 24.797,172.667 L26.819,187.206 L43.91,188.163 L43.352,172.559 C49.152,170.675 59.121,166.056 56.994,156.957 z" fill-opacity="0" stroke="#666666" stroke-width="4" stroke-linecap="round" stroke-linejoin="round"/>
      <path d="M53.885,148.806 C53.885,148.806 50.299,156.506 35.805,152.715 L36.119,142.51" fill="#FFECD0"/>
      <path d="M53.885,148.806 C53.885,148.806 50.299,156.506 35.805,152.715 L36.119,142.51" fill-opacity="0" stroke="#666666" stroke-width="4" stroke-linecap="round" stroke-linejoin="round"/>
      <path d="M283.931,127.593 C264.397,125.585 263.034,144.281 260.07,156.957 C257.943,166.056 267.912,170.675 273.712,172.559 L273.154,188.163 L290.246,187.206 L292.268,172.667 C297.191,170.019 309.663,162.098 310.143,149.583 C310.904,129.654 296.212,128.855 283.931,127.593" fill="#FFECD0"/>
      <path d="M283.931,127.593 C264.397,125.585 263.034,144.281 260.07,156.957 C257.943,166.056 267.912,170.675 273.712,172.559 L273.154,188.163 L290.246,187.206 L292.268,172.667 C297.191,170.019 309.663,162.098 310.143,149.583 C310.904,129.654 296.212,128.855 283.931,127.593 z" fill-opacity="0" stroke="#666666" stroke-width="4" stroke-linecap="round" stroke-linejoin="round"/>
      <path d="M263.18,148.806 C263.18,148.806 266.766,156.506 281.26,152.715 L280.945,142.51" fill="#FFECD0"/>
      <path d="M263.18,148.806 C263.18,148.806 266.766,156.506 281.26,152.715 L280.945,142.51" fill-opacity="0" stroke="#666666" stroke-width="4" stroke-linecap="round" stroke-linejoin="round"/>
      <path d="M150.575,240.065 L152.043,224.325 L158.531,220.046 L165.021,224.325 L166.49,240.065 L177.733,242.588 C177.733,242.588 179.658,251.655 158.531,251.655 C137.407,251.655 139.331,242.588 139.331,242.588 z" fill="#FFECD0"/>
      <path d="M150.575,240.065 L152.043,224.325 L158.531,220.046 L165.021,224.325 L166.49,240.065 L177.733,242.588 C177.733,242.588 179.658,251.655 158.531,251.655 C137.407,251.655 139.331,242.588 139.331,242.588 L150.575,240.065 z" fill-opacity="0" stroke="#666666" stroke-width="4" stroke-linecap="round" stroke-linejoin="round"/>
      <path d="M238.257,46.512 C231.834,33.448 215.459,27.378 215.459,27.378 L220.058,19.678 C214.963,20.518 205.498,17.162 198.219,14.647 C190.938,12.131 173.574,13.808 173.574,13.808 L174.195,4.584 C168.371,9.617 126.456,9.982 112.954,16.69 C99.453,23.396 98.726,28.542 98.726,28.542 C93.81,30.868 83.419,36.728 78.608,46.512 C66.047,72.056 67.724,130.229 67.724,130.229 C67.724,130.229 69.45,129.544 72.519,128.292 C75.382,78.556 105.401,30.073 158.531,30.073 C211.493,30.073 241.491,78.246 244.52,127.811 C247.482,129.371 249.142,130.229 249.142,130.229 C249.142,130.229 250.818,72.056 238.257,46.512" fill="#8A7763"/>
      <path d="M238.257,46.512 C231.834,33.448 215.459,27.378 215.459,27.378 L220.058,19.678 C214.963,20.518 205.498,17.162 198.219,14.647 C190.938,12.131 173.574,13.808 173.574,13.808 L174.195,4.584 C168.371,9.617 126.456,9.982 112.954,16.69 C99.453,23.396 98.726,28.542 98.726,28.542 C93.81,30.868 83.419,36.728 78.608,46.512 C66.047,72.056 67.724,130.229 67.724,130.229 C67.724,130.229 69.45,129.544 72.519,128.292 C75.382,78.556 105.401,30.073 158.531,30.073 C211.493,30.073 241.491,78.246 244.52,127.811 C247.482,129.371 249.142,130.229 249.142,130.229 C249.142,130.229 250.818,72.056 238.257,46.512 z" fill-opacity="0" stroke="#666666" stroke-width="4" stroke-linecap="round" stroke-linejoin="round"/>
      <path d="M87.423,129.694 C87.423,129.694 59.281,123.804 59.281,149.611 C59.281,164.793 68.97,171.686 88.888,171.975" fill="#FFECD0"/>
      <path d="M87.423,129.694 C87.423,129.694 59.281,123.804 59.281,149.611 C59.281,164.793 68.97,171.686 88.888,171.975" fill-opacity="0" stroke="#666666" stroke-width="4" stroke-linecap="round" stroke-linejoin="round"/>
      <path d="M70.005,151.008 C70.005,151.008 73.694,149.281 77.21,149.302" fill="#FFECD0"/>
      <path d="M70.005,151.008 C70.005,151.008 73.694,149.281 77.21,149.302" fill-opacity="0" stroke="#666666" stroke-width="4" stroke-linecap="round" stroke-linejoin="round"/>
      <path d="M229.642,129.694 C229.642,129.694 257.784,123.804 257.784,149.611 C257.784,164.793 248.096,171.686 228.178,171.975" fill="#FFECD0"/>
      <path d="M229.642,129.694 C229.642,129.694 257.784,123.804 257.784,149.611 C257.784,164.793 248.096,171.686 228.178,171.975" fill-opacity="0" stroke="#666666" stroke-width="4" stroke-linecap="round" stroke-linejoin="round"/>
      <path d="M247.061,151.008 C247.061,151.008 243.371,149.281 239.855,149.302" fill="#FFECD0"/>
      <path d="M247.061,151.008 C247.061,151.008 243.371,149.281 239.855,149.302" fill-opacity="0" stroke="#666666" stroke-width="4" stroke-linecap="round" stroke-linejoin="round"/>
      <path d="M158.531,234.411 C37.773,234.411 49.457,30.073 158.531,30.073 C267.608,30.073 279.292,234.411 158.531,234.411" fill="#FFECD0"/>
      <path d="M158.531,234.411 C37.773,234.411 49.457,30.073 158.531,30.073 C267.608,30.073 279.292,234.411 158.531,234.411 z" fill-opacity="0" stroke="#666666" stroke-width="4" stroke-linecap="round" stroke-linejoin="round"/>
      <path d="M154.613,173.025 C154.613,173.025 153.28,179.111 158.532,178.773" fill-opacity="0" stroke="#666666" stroke-width="4" stroke-linecap="round" stroke-linejoin="round"/>
      <path d="M158.531,195.299 C142.964,195.299 135.064,189.177 135.064,189.177 C135.064,207.598 145.064,214.065 158.531,214.065 C172,214.065 182,207.598 182,189.177 C182,189.177 174.102,195.299 158.531,195.299" fill="#F09A96"/>
      <path d="M158.531,195.299 C142.964,195.299 135.064,189.177 135.064,189.177 C135.064,207.598 145.064,214.065 158.531,214.065 C172,214.065 182,207.598 182,189.177 C182,189.177 174.102,195.299 158.531,195.299 z" fill-opacity="0" stroke="#666666" stroke-width="4" stroke-linecap="round" stroke-linejoin="round"/>
      <path d="M205.99,426.089 L203.198,395.249 L158.531,395.631 L113.866,395.249 L111.073,426.089 L107.694,670.811 L129.861,671.15 L154.291,463.176 L158.531,461.598 L162.772,463.176 L187.203,671.15 L209.371,670.811 z" fill="#878D91"/>
      <path d="M205.99,426.089 L203.198,395.249 L158.531,395.631 L113.866,395.249 L111.073,426.089 L107.694,670.811 L129.861,671.15 L154.291,463.176 L158.531,461.598 L162.772,463.176 L187.203,671.15 L209.371,670.811 L205.99,426.089 z" fill-opacity="0" stroke="#666666" stroke-width="4" stroke-linecap="round" stroke-linejoin="round"/>
      <path d="M115.686,259.835 L106.791,432.78 C106.791,432.78 150.073,438.758 154.303,434.681 C158.531,430.604 158.531,395.911 158.531,395.911 L158.531,383.141 C158.531,383.141 158.531,430.604 162.762,434.681 C166.99,438.758 210.272,432.78 210.272,432.78 L201.378,259.835" fill="#878D91"/>
      <path d="M115.686,259.835 L106.791,432.78 C106.791,432.78 150.073,438.758 154.303,434.681 C158.531,430.604 158.531,395.911 158.531,395.911 L158.531,383.141 C158.531,383.141 158.531,430.604 162.762,434.681 C166.99,438.758 210.272,432.78 210.272,432.78 L201.378,259.835" fill-opacity="0" stroke="#666666" stroke-width="4" stroke-linecap="round" stroke-linejoin="round"/>
      <path d="M145.663,239.574 C128.731,239.028 121.523,239.979 108.591,240.056 C102.001,240.095 69.663,242.547 59.653,243.787 C47.208,245.329 42.925,268.808 44.907,275.963 C45.502,278.113 78.537,283.498 115.563,285.526" fill="#878D91"/>
      <path d="M145.663,239.574 C128.731,239.028 121.523,239.979 108.591,240.056 C102.001,240.095 69.663,242.547 59.653,243.787 C47.208,245.329 42.925,268.808 44.907,275.963 C45.502,278.113 78.537,283.498 115.563,285.526" fill-opacity="0" stroke="#666666" stroke-width="4" stroke-linecap="round" stroke-linejoin="round"/>
      <path d="M59.732,245.807 L47.564,180.717 L21.426,181.16 C21.426,181.16 27.3,238.578 28.858,267.524 C29.744,283.987 78.001,280.629 116.336,285.572" fill="#878D91"/>
      <path d="M59.732,245.807 L47.564,180.717 L21.426,181.16 C21.426,181.16 27.3,238.578 28.858,267.524 C29.744,283.987 78.001,280.629 116.336,285.572" fill-opacity="0" stroke="#666666" stroke-width="4" stroke-linecap="round" stroke-linejoin="round"/>
      <path d="M171.402,239.574 C188.332,239.028 195.541,239.979 208.473,240.056 C215.062,240.095 247.402,242.547 257.412,243.787 C269.855,245.329 274.139,268.808 272.157,275.963 C271.562,278.113 238.527,283.498 201.501,285.526" fill="#878D91"/>
      <path d="M171.402,239.574 C188.332,239.028 195.541,239.979 208.473,240.056 C215.062,240.095 247.402,242.547 257.412,243.787 C269.855,245.329 274.139,268.808 272.157,275.963 C271.562,278.113 238.527,283.498 201.501,285.526" fill-opacity="0" stroke="#666666" stroke-width="4" stroke-linecap="round" stroke-linejoin="round"/>
      <path d="M257.332,245.807 L269.5,180.717 L295.639,181.16 C295.639,181.16 289.765,238.578 288.207,267.524 C287.32,283.987 239.063,280.629 200.729,285.572" fill="#878D91"/>
      <path d="M257.332,245.807 L269.5,180.717 L295.639,181.16 C295.639,181.16 289.765,238.578 288.207,267.524 C287.32,283.987 239.063,280.629 200.729,285.572" fill-opacity="0" stroke="#666666" stroke-width="4" stroke-linecap="round" stroke-linejoin="round"/>
      <path d="M112.032,134.565 C112.032,134.565 114.657,122.393 122.532,122.393 C130.407,122.393 131.532,134.057 131.532,134.057" fill-opacity="0" stroke="#666666" stroke-width="4" stroke-linecap="round" stroke-linejoin="round"/>
      <path d="M205.031,134.565 C205.031,134.565 202.406,122.393 194.531,122.393 C186.656,122.393 185.531,134.057 185.531,134.057" fill-opacity="0" stroke="#666666" stroke-width="4" stroke-linecap="round" stroke-linejoin="round"/>
      <path d="M100.579,56.758 C100.579,56.758 129.657,64.829 140.907,61.786 C140.653,59.449 137.657,54.178 137.657,54.178 C137.657,54.178 165.014,61.406 178.406,59.601 C177.654,57.611 174.617,53.164 174.617,53.164 C174.617,53.164 202.757,60.952 211.656,58.743 C210.656,56.714 210.656,52.403 210.656,52.403 L226.406,55.954 C226.406,55.954 209.74,14.809 140.574,26.884 C87.058,36.226 100.579,56.758 100.579,56.758" fill="#8A7763"/>
      <path d="M100.579,56.758 C100.579,56.758 129.657,64.829 140.907,61.786 C140.653,59.449 137.657,54.178 137.657,54.178 C137.657,54.178 165.014,61.406 178.406,59.601 C177.654,57.611 174.617,53.164 174.617,53.164 C174.617,53.164 202.757,60.952 211.656,58.743 C210.656,56.714 210.656,52.403 210.656,52.403 L215.259,54.587" fill="#8A7763"/>
      <path d="M100.579,56.758 C100.579,56.758 129.657,64.829 140.907,61.786 C140.653,59.449 137.657,54.178 137.657,54.178 C137.657,54.178 165.014,61.406 178.406,59.601 C177.654,57.611 174.617,53.164 174.617,53.164 C174.617,53.164 202.757,60.952 211.656,58.743 C210.656,56.714 210.656,52.403 210.656,52.403 L215.259,54.587" fill-opacity="0" stroke="#666666" stroke-width="4" stroke-linecap="round" stroke-linejoin="round"/>
      <path d="M111.806,96.273 C111.806,96.273 115.241,94.093 121.09,94.093 C126.073,94.093 129.542,96.781 129.542,96.781" fill-opacity="0" stroke="#666666" stroke-width="4" stroke-linecap="round" stroke-linejoin="round"/>
      <path d="M204.674,96.273 C204.674,96.273 201.24,94.093 195.391,94.093 C190.406,94.093 186.938,96.781 186.938,96.781" fill-opacity="0" stroke="#666666" stroke-width="4" stroke-linecap="round" stroke-linejoin="round"/>
      <path d="M150.449,237.679 C150.449,237.679 152.37,245.943 158.657,251.477 C158.657,251.477 152.894,248.785 150.798,250.72 C148.703,252.656 140.319,257.979 140.319,257.979 L144.511,241.033 z" fill="#FFFFFF"/>
      <path d="M150.449,237.679 C150.449,237.679 152.37,245.943 158.657,251.477 C158.657,251.477 152.894,248.785 150.798,250.72 C148.703,252.656 140.319,257.979 140.319,257.979 L144.511,241.033 L150.449,237.679 z" fill-opacity="0" stroke="#666666" stroke-width="4" stroke-linecap="round" stroke-linejoin="round"/>
      <path d="M166.866,237.679 C166.866,237.679 164.945,245.943 158.657,251.477 C158.657,251.477 164.421,248.785 166.517,250.72 C168.612,252.656 176.996,257.979 176.996,257.979 L172.805,241.033 z" fill="#FFFFFF"/>
      <path d="M166.866,237.679 C166.866,237.679 164.945,245.943 158.657,251.477 C158.657,251.477 164.421,248.785 166.517,250.72 C168.612,252.656 176.996,257.979 176.996,257.979 L172.805,241.033 L166.866,237.679 z" fill-opacity="0" stroke="#666666" stroke-width="4" stroke-linecap="round" stroke-linejoin="round"/>
      <path d="M152.01,314.568 L139.062,248.424 L158.658,250.305 L178.003,248.424 L165.053,314.568 z" fill="#FFFFFF"/>
      <path d="M152.01,314.568 L139.062,248.424 L158.658,250.305 L178.003,248.424 L165.053,314.568 L152.01,314.568 z" fill-opacity="0" stroke="#666666" stroke-width="4" stroke-linecap="round" stroke-linejoin="round"/>
      <path d="M124.188,285.96 L134.188,243.411 C138.901,242.816 140.859,240.709 143.892,240.708 L158.531,324.793 L173.173,240.708 C176.204,240.709 178.162,242.816 182.875,243.411 L192.875,285.96 L194.182,296.221 L158.824,329.444 z" fill="#878D91"/>
      <path d="M156.49,346.939 C156.49,348.085 157.404,349.01 158.531,349.01 C159.658,349.01 160.572,348.085 160.572,346.939 C160.572,345.796 159.658,344.869 158.531,344.869 C157.404,344.869 156.49,345.796 156.49,346.939" fill="#878D91"/>
      <path d="M156.49,346.939 C156.49,348.085 157.404,349.01 158.531,349.01 C159.658,349.01 160.572,348.085 160.572,346.939 C160.572,345.796 159.658,344.869 158.531,344.869 C157.404,344.869 156.49,345.796 156.49,346.939 z" fill-opacity="0" stroke="#666666" stroke-width="4" stroke-linecap="round" stroke-linejoin="round"/>
      <path d="M156.49,371.031 C156.49,372.175 157.404,373.101 158.531,373.101 C159.658,373.101 160.572,372.175 160.572,371.031 C160.572,369.887 159.658,368.96 158.531,368.96 C157.404,368.96 156.49,369.887 156.49,371.031" fill="#878D91"/>
      <path d="M156.49,371.031 C156.49,372.175 157.404,373.101 158.531,373.101 C159.658,373.101 160.572,372.175 160.572,371.031 C160.572,369.887 159.658,368.96 158.531,368.96 C157.404,368.96 156.49,369.887 156.49,371.031 z" fill-opacity="0" stroke="#666666" stroke-width="4" stroke-linecap="round" stroke-linejoin="round"/>
      <path d="M153.807,260.709 L158.824,260.344 L163.842,260.709 L167.186,294.618 L158.824,330.873 L150.463,294.618 z" fill="#915D5D"/>
      <path d="M153.807,260.709 L158.824,260.344 L163.842,260.709 L167.186,294.618 L158.824,330.873 L150.463,294.618 L153.807,260.709 z" fill-opacity="0" stroke="#666666" stroke-width="4" stroke-linecap="round" stroke-linejoin="round"/>
      <path d="M164.438,250.432 L163.799,260.068 C163.799,260.068 161.205,261.97 158.824,261.97 C156.443,261.97 153.85,260.068 153.85,260.068 L153.21,250.432 z" fill="#915D5D"/>
      <path d="M164.438,250.432 L163.799,260.068 C163.799,260.068 161.205,261.97 158.824,261.97 C156.443,261.97 153.85,260.068 153.85,260.068 L153.21,250.432 L164.438,250.432 z" fill-opacity="0" stroke="#666666" stroke-width="4" stroke-linecap="round" stroke-linejoin="round"/>
      <path d="M173.173,240.708 L184.158,251.891 L176.158,257.977 L184.491,262.034 L158.824,333.42 z" fill="#878D91"/>
      <path d="M173.173,240.708 L184.158,251.891 L176.158,257.977 L184.491,262.034 L158.824,333.42 L173.173,240.708 z" fill-opacity="0" stroke="#666666" stroke-width="4" stroke-linecap="round" stroke-linejoin="round"/>
      <path d="M203.187,386.539 L203.187,392.076 C203.187,393.269 202.234,394.236 201.059,394.236 L180.953,394.236 C179.777,394.236 178.824,393.269 178.824,392.076 L178.824,386.539 z" fill="#878D91"/>
      <path d="M203.187,386.539 L203.187,392.076 C203.187,393.269 202.234,394.236 201.059,394.236 L180.953,394.236 C179.777,394.236 178.824,393.269 178.824,392.076 L178.824,386.539 L203.187,386.539 z" fill-opacity="0" stroke="#666666" stroke-width="4" stroke-linecap="round" stroke-linejoin="round"/>
      <path d="M114.462,386.539 L114.462,392.076 C114.462,393.269 115.415,394.236 116.591,394.236 L136.696,394.236 C137.872,394.236 138.825,393.269 138.825,392.076 L138.825,386.539 z" fill="#878D91"/>
      <path d="M114.462,386.539 L114.462,392.076 C114.462,393.269 115.415,394.236 116.591,394.236 L136.696,394.236 C137.872,394.236 138.825,393.269 138.825,392.076 L138.825,386.539 L114.462,386.539 z" fill-opacity="0" stroke="#666666" stroke-width="4" stroke-linecap="round" stroke-linejoin="round"/>
      <path d="M144.477,240.708 L133.491,251.891 L141.491,257.977 L133.158,262.034 L158.824,333.42 z" fill="#878D91"/>
      <path d="M144.477,240.708 L133.491,251.891 L141.491,257.977 L133.158,262.034 L158.824,333.42 L144.477,240.708 z" fill-opacity="0" stroke="#666666" stroke-width="4" stroke-linecap="round" stroke-linejoin="round"/>
    </g>
  </g>
</svg>
